<?xml version="1.0" encoding="utf-8"?>
<!-- Uploaded to: SVG Repo, www.svgrepo.com, Generator: SVG Repo Mixer Tools -->
<svg width="800px" height="800px" viewBox="0 -21.6 377.449 377.449" xmlns="http://www.w3.org/2000/svg"><defs><style>.a{fill:#ffffff;}.b{fill:#211715;}.c{fill:#7a7473;}.d{fill:#f2635f;}.e{fill:#febe69;}.f{fill:#a095c1;}.g{fill:#89705d;}</style></defs><path class="a" d="M301.486,141.323c.59,9.087,2.545,35.532,4.567,64.033H281.606c2.126-27.945,4.219-53.923,5.021-63.552,0,0,0-.445,0-1.135,3.573-1.389,6.617-2.581,7.893-2.922a2.235,2.235,0,0,1,1.134-.008c1.031.261,3.18,1.073,5.821,2.1,0,.81,0,1.356,0,1.356Z"/><path class="a" d="M286.832,292.5q-.544,4.191-.836,8.393c-5.056,3.33-12.431,6.363-17.611,1.782.165-3.443.341-6.875.528-10.318A34.046,34.046,0,0,0,286.832,292.5Z"/><path class="a" d="M320.624,300.319l1.936,1.54c-5.25,5.983-13.8,2.228-19.283-1.507l.165-.264c-.44-2.651-.748-5.313-.979-7.986,5.52,2.047,12.152,1.821,17.875.583C320.393,295.237,320.481,297.778,320.624,300.319Z"/><path class="a" d="M316.473,326.772a17.652,17.652,0,0,0,3.271,2.552,21.455,21.455,0,0,0,13.355,2.741,12.642,12.642,0,0,0,5.675-2,7.057,7.057,0,0,0,3.1-5c.243-2.869-1.5-5.587-3.54-7.619-5.237-5.212-10.788-10.328-15.414-16.033-2.319,3.192-6.473,4.106-10.195,3.344-3.423-.7-6.473-2.573-9.449-4.4-2.847-1.751-3.276,6.469-3.344,8.252-.106,2.821-.569,6.549,1.67,8.635a22.542,22.542,0,0,0,7.159,3.894C312.192,322.184,313.965,324.4,316.473,326.772Z"/><path class="a" d="M273.68,326.772a17.645,17.645,0,0,1-3.27,2.552,21.458,21.458,0,0,1-13.355,2.741,12.638,12.638,0,0,1-5.675-2,7.062,7.062,0,0,1-3.1-5c-.242-2.869,1.5-5.587,3.54-7.619,5.237-5.212,10.789-10.328,15.414-16.033,2.32,3.192,6.473,4.106,10.195,3.344,3.423-.7,6.473-2.573,9.449-4.4,2.848-1.751,3.277,6.469,3.344,8.252.106,2.821.57,6.549-1.669,8.635a22.553,22.553,0,0,1-7.159,3.894C277.961,322.184,276.188,324.4,273.68,326.772Z"/><path class="b" d="M267.011,290.6q-.347,6.036-.627,12.078a2.014,2.014,0,0,0,2,2,2.045,2.045,0,0,0,2-2q.281-6.041.627-12.078a2.012,2.012,0,0,0-2-2,2.045,2.045,0,0,0-2,2Z"/><path class="b" d="M285.1,290.462c-.473,3.466-.859,6.941-1.105,10.432a2.01,2.01,0,0,0,2,2,2.049,2.049,0,0,0,2-2q.171-2.434.424-4.862.122-1.164.261-2.327.07-.582.144-1.163.043-.339.088-.677c.012-.1.025-.194.038-.291q-.042.314.007-.049a2.21,2.21,0,0,0-.2-1.541,2,2,0,0,0-3.656.478Z"/><path class="b" d="M305.375,299.554q-.184-1.108-.342-2.22c-.012-.089-.1-.727-.037-.269-.023-.178-.047-.357-.069-.535q-.067-.534-.129-1.07c-.171-1.488-.31-2.979-.43-4.471a2,2,0,0,0-4,0c.258,3.222.618,6.438,1.15,9.628a2.007,2.007,0,0,0,2.46,1.4,2.057,2.057,0,0,0,1.4-2.46Z"/><path class="b" d="M322.628,300.317q-.261-4.87-.319-9.746a2,2,0,0,0-4,0q.052,4.875.319,9.746a2,2,0,0,0,4,0Z"/><path class="b" d="M315.059,328.186a21.952,21.952,0,0,0,11.462,5.686c4.226.7,9.18.53,12.9-1.838a8.9,8.9,0,0,0,3.934-10.547c-1.471-4.136-5.209-7.031-8.244-10.01A142.444,142.444,0,0,1,324.33,300c-.9-1.107-2.445-.51-3.141.4-2.91,3.822-8.46,2.764-12.154.946-1.115-.549-2.193-1.169-3.258-1.809a7.025,7.025,0,0,0-3.109-1.419,3.591,3.591,0,0,0-3.308,2.338c-1.212,2.582-1.32,5.656-1.445,8.464a20.52,20.52,0,0,0,.3,6.311,8.731,8.731,0,0,0,4.168,5.077,48.479,48.479,0,0,0,6.838,3.115c2.332,1.03,4.029,3.038,5.835,4.762,1.862,1.778,4.695-1.046,2.828-2.828a40.024,40.024,0,0,0-5.051-4.485c-1.75-1.181-3.787-1.616-5.669-2.507-1.548-.733-3.722-1.648-4.67-3.163-.965-1.544-.7-3.736-.621-5.461.12-2.527.041-5.135,1.024-7.463-.113.269.165-.284.216-.38-.222.416-.086,0-.016.021-.039-.013.239,0-.07.049-.206.035-.414.1-.625.124-.162.02-.321-.228-.221-.058.225.382,1.4.851,1.763,1.07a30.283,30.283,0,0,0,6.976,3.263c5.045,1.466,10.456.339,13.72-3.948l-3.141.4c2.488,3.05,5.191,5.911,7.97,8.7,2.683,2.69,5.592,5.224,8.125,8.056,2.041,2.283,3.35,5.579.921,8.085-2.4,2.483-6.5,2.766-9.746,2.5a18.123,18.123,0,0,1-10.885-4.8C316.01,323.6,313.175,326.422,315.059,328.186Z"/><path class="b" d="M272.266,325.358a18.229,18.229,0,0,1-9.483,4.619c-3.265.578-7.4.439-10.214-1.517a5.2,5.2,0,0,1-2.286-3.4,6.572,6.572,0,0,1,1.464-4.479,29.029,29.029,0,0,1,3.632-3.839c1.383-1.357,2.772-2.709,4.148-4.073a127.362,127.362,0,0,0,9.125-9.847l-3.141-.4c2.863,3.761,7.34,5.109,11.927,4.359a22.5,22.5,0,0,0,7.057-2.687c1.088-.6,2.162-1.232,3.209-1.9.582-.37.1-.024-.348-.122-.107-.024-.355-.251-.41-.253.086,0,.254.383.151.149-.124-.279.3.651.156.312a6.792,6.792,0,0,1,.271.836,16.662,16.662,0,0,1,.431,2.134c.128.9.217,2.185.266,3.247a19.473,19.473,0,0,1-.1,5.51c-.46,1.854-2.057,2.728-3.636,3.6-2.107,1.159-4.492,1.672-6.555,2.886a32.5,32.5,0,0,0-5.661,4.87c-1.866,1.781.966,4.607,2.828,2.828,1.637-1.562,3.162-3.325,5.17-4.425,1.924-1.054,4.122-1.56,6.072-2.616,1.868-1.011,3.921-2.264,4.932-4.208a12.879,12.879,0,0,0,1.04-6.517c-.115-2.909-.145-6.01-1.055-8.8-.451-1.378-1.213-2.9-2.709-3.364-2.064-.636-4.021,1.231-5.684,2.168-3.994,2.249-10.464,4.485-13.9-.023-.7-.914-2.237-1.511-3.141-.4a130.271,130.271,0,0,1-9.455,10.174c-1.652,1.633-3.32,3.251-4.974,4.883a19.566,19.566,0,0,0-3.924,4.876,8.893,8.893,0,0,0,1.894,11.084c3.316,2.874,8.214,3.543,12.448,3.1a22.533,22.533,0,0,0,13.282-5.932C276.977,326.423,274.144,323.6,272.266,325.358Z"/><path class="a" d="M327.514,204.613c.781,21.791,3.157,53.922,1.276,75.636-.231,2.651-.517,5.412-1.837,7.689-3.08,5.313-10.1,5.753-15.994,5.588-3.443-.1-7.084-.264-9.966-2.255-5.786-4-5.852-11.131-5.852-18.425v.365c0,7.295-.066,14.056-5.852,18.06-2.882,1.991-6.523,2.156-9.966,2.255-5.9.165-12.925-.275-15.994-5.588-1.32-2.277-1.606-5.038-1.837-7.689-1.881-21.714-.11-53.174.682-74.965"/><path class="b" d="M260.174,205.284c-.477,13.064-1.108,26.121-1.381,39.192-.143,6.848-.2,13.7-.055,20.55a141.085,141.085,0,0,0,1.152,18.7,12.854,12.854,0,0,0,4.4,8.343,16.187,16.187,0,0,0,7.956,3.133,46.4,46.4,0,0,0,8.739.264c3.509-.17,7.041-.733,9.909-2.907,5.032-3.815,6.073-9.932,6.216-15.881.1-4.081.029-8.172.029-12.254V231.4c0-2.574-4-2.579-4,0v40.266c0,4.634.471,10-1.733,14.253a9.633,9.633,0,0,1-6.014,4.95,31.848,31.848,0,0,1-9.148.672,19.8,19.8,0,0,1-7.315-1.294,8.22,8.22,0,0,1-4.864-5.926,49.684,49.684,0,0,1-.912-8.656c-.184-3.018-.3-6.04-.381-9.063-.164-6.393-.143-12.791-.036-19.185.235-14.051.923-28.087,1.436-42.129.094-2.574-3.907-2.57-4,0Z"/><path class="b" d="M325.514,204.613c.445,12.342,1.176,24.671,1.607,37.014.433,12.4.736,24.881-.22,37.266-.23,2.975-.317,6.429-2.235,8.892-1.535,1.972-3.972,2.869-6.343,3.337a35.329,35.329,0,0,1-7.986.385c-3.058-.1-6.334-.314-8.812-2.32-4.528-3.666-4.373-10.278-4.384-15.56-.007-3.512,0-7.023,0-10.535V231.4c0-2.574-4-2.579-4,0v29.633q0,5.776,0,11.554c0,5.8-.142,12.407,3.54,17.271,4.265,5.634,11.537,5.947,18.048,5.659,5.729-.254,11.992-1.956,14.5-7.678,1.367-3.116,1.51-6.625,1.746-9.976.214-3.033.344-6.072.422-9.112.173-6.681.1-13.367-.064-20.048-.368-14.705-1.29-29.387-1.821-44.086-.093-2.566-4.094-2.579-4,0Z"/><path class="c" d="M280.68,217.635c2.415-32.317,5.029-64.8,5.947-75.831v-8.616l-27.749.155a26.237,26.237,0,0,0-6.457,6.457c-4.653,7.051-7.81,16.247-10.989,24.068-4.19,10.334-7.967,22.122-12.12,32.615a2.188,2.188,0,0,0,1.026,2.764,81.2,81.2,0,0,0,22.27,7.246l5.857.777c-1.52,29-3.614,66.53-4.585,81.326a4.081,4.081,0,0,0,.386,2.1c1.023,1.811,4.1,2.219,6.7,2.385,4.567.288,9.724.424,14.948.489C275.874,284.609,278.17,251.212,280.68,217.635Z"/><path class="c" d="M306.814,216.132c-2.281-32.519-4.685-64.859-5.337-74.939v-7.4h29.8a30.354,30.354,0,0,1,6.534,6.82c4.642,7.051,7.887,15.433,11.066,23.254C353.081,174.2,356.849,186,361,196.49a2.193,2.193,0,0,1-1.022,2.762,72.413,72.413,0,0,1-24.106,7.043c-.735.1-4.715.283-7.545.4,1.793,30.676,4.362,70.138,5.129,81.652,0,.066,0,.132,0,.2l0,.049a4.071,4.071,0,0,1-.386,2.1c-1.022,1.811-4.1,2.219-6.7,2.385-4.567.288-9.724.424-14.948.489C311.466,284.566,309.207,250.25,306.814,216.132Z"/><path class="d" d="M325.9,110.29a103.337,103.337,0,0,1,23.175,17.946.613.613,0,0,1,.236.519.732.732,0,0,1-.345.378c-6.236,3.421-14.266,5.115-21.636,6.255l-14.121,2.143-41.99-1.354-9.583-1.523a71.725,71.725,0,0,1-18.587-5.329c-.138-.062-.35-.209-.368-.346a.649.649,0,0,1,.246-.55A99.267,99.267,0,0,1,266.4,110.423l9.984-4.707H316.55Z"/><path class="a" d="M229.484,225.85a57.679,57.679,0,0,1-5.2,3.439c-2.1,1.234-4.457,2.367-6.874,2.054a2.753,2.753,0,0,1-2.68-3c-.116-3.758,3.054-6.677,5.794-9.252a80.123,80.123,0,0,0,10.159-11.584c1.6-2.435,2.142-4.629,3.2-6.595a87.269,87.269,0,0,0,10.205,3.65l-2.079,9.1c-.332,1.16-.785,3.826-1,5.012-.2,1.1-.57,3.422-1.059,5.989a3.453,3.453,0,0,1-2.864,3.013c-2.428.308-5.239-.841-5.74-3.266Q230.429,225.148,229.484,225.85Z"/><path class="a" d="M360.888,226.011q-1.057-.777-2.079-1.6c-.5,2.425-3.312,3.574-5.74,3.266a3.451,3.451,0,0,1-2.863-3.013c-.489-2.567-.856-4.889-1.06-5.989-.219-1.186-.672-3.852-1-5.012l-1.363-9.261a71.907,71.907,0,0,0,9.538-3.4c1.028,1.942,1.578,4.106,3.152,6.5a80.13,80.13,0,0,0,10.16,11.584c2.74,2.575,5.91,5.494,5.793,9.252a2.753,2.753,0,0,1-2.68,3c-2.417.313-4.771-.82-6.873-2.054A57.847,57.847,0,0,1,360.888,226.011Z"/><path class="b" d="M231.828,200.554c-.767,1.642-1.368,3.358-2.261,4.94a34.726,34.726,0,0,1-3.625,4.906,110.589,110.589,0,0,1-8.219,8.593c-2.487,2.422-4.893,5.335-4.992,8.975a5.026,5.026,0,0,0,2.49,4.773,8,8,0,0,0,5.663.276,23.5,23.5,0,0,0,6.147-3.061,64.331,64.331,0,0,0,5.727-4.133l-3.342-.882c1.2,4.741,8.539,6.7,11.506,2.5,1.418-2.007,1.449-4.994,1.856-7.35.341-1.969.637-3.973,1.162-5.9.677-2.487-3.18-3.548-3.857-1.064-.85,3.125-1.226,6.407-1.8,9.59-.269,1.486-.3,3.082-2.161,3a2.8,2.8,0,0,1-2.847-1.845A2.027,2.027,0,0,0,229.93,223a55.653,55.653,0,0,1-5.492,3.868,14.869,14.869,0,0,1-5.446,2.487c-.578.08-1.757.217-2.139-.362s-.073-1.7.1-2.273a10.956,10.956,0,0,1,2.908-4.208c2.959-3.023,6.046-5.843,8.762-9.1a50.441,50.441,0,0,0,4.045-5.293,49.237,49.237,0,0,0,2.612-5.537,2.058,2.058,0,0,0-.718-2.736,2.016,2.016,0,0,0-2.736.717Z"/><path class="b" d="M354.872,202.573a48.981,48.981,0,0,0,2.612,5.537,49.7,49.7,0,0,0,3.9,5.119c2.756,3.328,5.9,6.2,8.908,9.278a10.954,10.954,0,0,1,2.907,4.208c.165.542.478,1.738.1,2.273s-1.416.442-1.985.377c-2.033-.232-3.9-1.449-5.6-2.5A55.382,55.382,0,0,1,360.223,223a2.026,2.026,0,0,0-3.342.882,2.8,2.8,0,0,1-2.848,1.845c-1.863.081-1.89-1.511-2.161-3-.576-3.183-.951-6.465-1.8-9.59-.675-2.481-4.535-1.427-3.857,1.064.512,1.881.8,3.834,1.136,5.753.417,2.4.44,5.455,1.883,7.5,2.965,4.2,10.306,2.235,11.506-2.5l-3.343.882A45.288,45.288,0,0,0,367.57,232.4c3.343,1.428,8.623,1.736,9.689-2.729.865-3.618-1.38-7.061-3.735-9.568-2.661-2.832-5.586-5.368-8.139-8.313a51.544,51.544,0,0,1-4.319-5.491,45.134,45.134,0,0,1-2.74-5.74,2.018,2.018,0,0,0-2.737-.717,2.045,2.045,0,0,0-.717,2.736Z"/><path class="b" d="M253.14,204.561a75.682,75.682,0,0,1-16.544-4.67q-1.8-.717-3.563-1.542a7.12,7.12,0,0,1-1.686-.826c-.374-.366-.18-.3.054-.926,1.113-2.989,2.28-5.957,3.37-8.955,4.323-11.893,8.512-23.851,13.5-35.489a80.95,80.95,0,0,1,4.565-9.24,26.482,26.482,0,0,1,6.6-7.509,2.011,2.011,0,0,0,0-2.828,2.048,2.048,0,0,0-2.828,0c-5.292,4.184-8.385,9.888-11.088,15.958-2.677,6.009-5.036,12.186-7.408,18.321-2.523,6.528-4.8,13.146-7.194,19.723q-.864,2.376-1.75,4.742a47.671,47.671,0,0,0-1.883,4.949c-.875,3.5,2.383,4.949,4.975,6.1a77.815,77.815,0,0,0,19.82,6.047,2.066,2.066,0,0,0,2.461-1.4,2.016,2.016,0,0,0-1.4-2.46Z"/><path class="b" d="M330.794,135.964a29.249,29.249,0,0,1,6.006,6.761,80.178,80.178,0,0,1,4.427,8.2c2.659,5.609,4.961,11.412,7.2,17.2,2.329,6.028,4.45,12.133,6.644,18.211,1.113,3.085,2.243,6.165,3.429,9.224a8.908,8.908,0,0,1,.678,1.724c-.035.13-.384.328-.672.474q-1.773.9-3.617,1.649a68.8,68.8,0,0,1-19.009,4.89,2.056,2.056,0,0,0-2,2,2.014,2.014,0,0,0,2,2,72.48,72.48,0,0,0,18.77-4.519c1.375-.526,2.738-1.093,4.078-1.7s2.878-1.175,3.724-2.445a4.374,4.374,0,0,0,.313-4.089c-.608-1.624-1.251-3.234-1.857-4.858-4.832-12.956-9.222-26.058-14.825-38.715-3.09-6.979-6.56-13.815-12.459-18.834-1.95-1.66-4.792,1.157-2.828,2.828Z"/><path class="b" d="M284.627,141.8q-.916,11.014-1.785,22.032-1.365,17.128-2.681,34.26-1.464,19.07-2.849,38.143c-.82,11.376-1.618,22.754-2.322,34.138-.449,7.251-.956,14.519-1.067,21.785q-.01.707-.01,1.412l2-2c-4.256-.055-8.514-.147-12.766-.365a27.288,27.288,0,0,1-5.253-.538,3.7,3.7,0,0,1-1.66-.693,1.942,1.942,0,0,1-.34-1.6c.14-3.239.41-6.478.6-9.714q.844-14.03,1.617-28.062.909-16.239,1.776-32.479.777-14.56,1.511-29.122c.29-5.823.606-11.647.8-17.474.011-.325.02-.649.028-.974.062-2.575-3.938-2.574-4,0-.128,5.342-.442,10.683-.7,16.018q-.711,14.454-1.49,28.9-.883,16.615-1.811,33.229-.809,14.5-1.665,29-.306,5.12-.633,10.236a5.981,5.981,0,0,0,1.169,4.525,7.58,7.58,0,0,0,4.262,2.182c3.821.781,7.9.687,11.785.8,2.258.064,4.516.1,6.774.133a2.026,2.026,0,0,0,2-2c-.023-6.572.474-13.166.866-19.723.658-11.029,1.422-22.052,2.208-33.073q1.357-19.041,2.821-38.074,1.344-17.6,2.741-35.189.951-11.981,1.933-23.958.072-.876.145-1.753c.214-2.565-3.787-2.551-4,0Z"/><path class="b" d="M299.477,141.193c.461,7.118.99,14.231,1.5,21.346q1.232,17.111,2.462,34.223,1.38,19.317,2.706,38.64c.787,11.567,1.555,23.135,2.237,34.708.432,7.334.923,14.684,1.033,22.032.007.477.011.955.009,1.432a2.026,2.026,0,0,0,2,2c4.551-.058,9.1-.158,13.649-.412,3.242-.181,7.865-.236,9.725-3.453.985-1.7.627-3.844.5-5.723q-.143-2.156-.283-4.312-.858-13.082-1.689-26.165-1.057-16.638-2.073-33.278-.948-15.633-1.817-31.27c-.364-6.708-.772-13.424-.923-20.141q-.015-.644-.021-1.286c-.02-2.573-4.02-2.579-4,0,.047,5.849.43,11.705.736,17.545q.778,14.817,1.692,29.627.987,16.439,2.03,32.874.879,13.9,1.783,27.79.3,4.6.6,9.2c.036.541.085,1.082.108,1.624.055,1.339-.17,1.929-1.5,2.339a21.917,21.917,0,0,1-5.312.656c-2.144.114-4.289.195-6.435.255-2.257.064-4.516.1-6.774.133l2,2c.024-6.632-.46-13.285-.836-19.9-.634-11.164-1.368-22.323-2.119-33.48q-1.3-19.3-2.685-38.6-1.258-17.683-2.541-35.367c-.562-7.8-1.136-15.589-1.659-23.387q-.056-.825-.109-1.648c-.165-2.556-4.167-2.574-4,0Z"/><path class="b" d="M281.6,207.356h24.453c2.574,0,2.578-4,0-4H281.6c-2.574,0-2.578,4,0,4Z"/><path class="a" d="M327.038,77.758a4.739,4.739,0,0,1,3.789-1.109,4.47,4.47,0,0,1,3.215,2.138,6.305,6.305,0,0,1,.662,2.543,18.942,18.942,0,0,1-1.931,10.043,12.051,12.051,0,0,1-3.114,4.087,3.631,3.631,0,0,1-3.64.851l-.547-.166c-.335,1.321-.778,2.471-.976,3.034-1.085,2.748-7.19,12.541-14.847,16.022.077.6.176,1.3.34,2.2.4,2.332,1.056,4.972,4.158,6.688.209.066,4.257,1.991,4.576,2.123,0,0-.547,7.578-25.8,7.578s-19.189-7.578-19.189-7.578c.33-.132,4.367-2.057,4.587-2.123,3.091-1.716,3.751-4.356,4.158-6.688.1-.557.175-1.027.228-1.435a29.988,29.988,0,0,1-10.781-7.958,34.06,34.06,0,0,1-6.751-11.473l-.808.218c-1.729.465-3.05-.457-4.1-1.3a12.051,12.051,0,0,1-3.114-4.087,18.953,18.953,0,0,1-1.932-10.043,6.338,6.338,0,0,1,.662-2.543,4.474,4.474,0,0,1,3.216-2.138,4.74,4.74,0,0,1,3.789,1.109s-1.192-20.642,32.077-20.642S327.038,77.758,327.038,77.758Z"/><path class="e" d="M329.7,57.627a32.61,32.61,0,0,0-3.549-7.979,33.094,33.094,0,0,0-4.607-5.828c-.7-.709-1.767-1.745-2.492-2.376a41.536,41.536,0,0,0-6.062-4.02,35.785,35.785,0,0,0-5.294-2.373,37.691,37.691,0,0,0-12.551-2.059,35.841,35.841,0,0,0-21.262,6.544,34.166,34.166,0,0,0-14.749,26.955c-.2,4.536,1.085,12.231.869,10.123a4.632,4.632,0,0,1,2.877,1.144l5.835-1.569A87.2,87.2,0,0,0,304.5,59.35c.993,2.431,5.347,7.983,7.264,9.806,3.939,3.744,4.863,4.931,8.948,7.444l6.325,1.158a4.681,4.681,0,0,1,3.469-1.135,46.668,46.668,0,0,0,.656-10.132A37.066,37.066,0,0,0,329.7,57.627Z"/><path class="b" d="M274.265,128.145c1.542-.636,3.031-1.4,4.548-2.1.115-.053.232-.1.347-.157.259-.119-.54.225-.338.143s.4-.157.584-.256a9.269,9.269,0,0,0,2.017-1.5,9.731,9.731,0,0,0,2.327-3.709,19.194,19.194,0,0,0,.888-4.08,2.209,2.209,0,0,0-.2-1.541,2,2,0,0,0-3.655.477,23.073,23.073,0,0,1-.67,3.42c-.072.244-.156.482-.241.721a1.678,1.678,0,0,0-.07.179c-.007-.007.175-.374.076-.182-.069.135-.127.276-.2.412a7.562,7.562,0,0,1-.442.745c-.043.064-.311.4-.127.186s-.151.167-.209.23a8.7,8.7,0,0,1-.642.617c-.279.249.224-.144-.092.076-.159.11-.318.22-.483.322-.1.064-.417.171-.064.077.525-.14.167-.07.138-.049a2.77,2.77,0,0,1-.528.223c-.1.041-.19.083-.284.126-.731.331-1.455.676-2.181,1.017q-.627.294-1.255.588c-.237.111-1.29.563-.308.158a2.054,2.054,0,0,0-1.4,2.461,2.02,2.02,0,0,0,2.46,1.4Z"/><path class="b" d="M307.648,115.194c.363,2.822.737,5.773,2.53,8.093a9.223,9.223,0,0,0,1.7,1.692,8.823,8.823,0,0,0,1.092.748,4.118,4.118,0,0,0,.655.3c.1.037-.615-.273-.33-.138.728.344,1.461.676,2.19,1.018s1.473.718,2.225,1.037a2.057,2.057,0,0,0,2.736-.718,2.021,2.021,0,0,0-.717-2.736c-.823-.349-1.625-.756-2.434-1.135-.5-.235-1-.469-1.5-.7-.159-.074-.319-.148-.48-.219a5.642,5.642,0,0,0-.583-.247c-.141.036.4.229.178.039a4.837,4.837,0,0,0-.53-.341c-.187-.136-.189-.135-.008,0-.086-.069-.171-.139-.254-.212a7.907,7.907,0,0,1-.866-.9c.337.4-.059-.1-.118-.192q-.155-.24-.291-.492c-.061-.112-.254-.374-.248-.5q.163.4.041.1c-.034-.085-.066-.171-.1-.256a13.372,13.372,0,0,1-.535-2.057q-.12-.642-.224-1.288-.056-.341-.105-.682c-.015-.1-.03-.207-.044-.31.038.285.043.318.014.1a2.053,2.053,0,0,0-2-2c-.969.043-2.143.889-2,2Z"/><path class="b" d="M328.452,79.172a2.642,2.642,0,0,1,3.864.624,6.089,6.089,0,0,1,.452,2.736,16.063,16.063,0,0,1-.233,3.233,16.95,16.95,0,0,1-2.271,6c-.775,1.233-2.092,3.053-3.714,2.621-2.49-.665-3.552,3.193-1.063,3.857,3.383.9,6.031-1.291,7.875-3.921a20.081,20.081,0,0,0,3.26-9.043c.365-2.986.379-6.8-2.044-8.971a6.79,6.79,0,0,0-8.954.039,2.015,2.015,0,0,0,0,2.828,2.043,2.043,0,0,0,2.828,0Z"/><path class="b" d="M323.9,93.36a15.729,15.729,0,0,1-1.044,4.49c-.094.266-.191.531-.286.8-.125.351.194-.4.023-.059-.153.307-.3.617-.459.92a37.692,37.692,0,0,1-3.489,5.341c-3.15,4.081-7.315,8.288-12.524,9.429-2.514.551-1.45,4.408,1.063,3.857,6.07-1.33,10.931-6.107,14.6-10.863,3.134-4.057,5.884-8.641,6.112-13.912.112-2.574-3.888-2.569-4,0Z"/><path class="b" d="M264.3,76.344a6.793,6.793,0,0,0-8.954-.039c-2.482,2.226-2.407,6.154-2.014,9.2a19.783,19.783,0,0,0,3.419,9.08c1.9,2.609,4.751,4.853,8.149,4.1,2.513-.554,1.449-4.411-1.063-3.857-1.588.35-3.236-1.641-4-2.8a16.7,16.7,0,0,1-2.413-6.1,15.946,15.946,0,0,1-.269-3.183,6.407,6.407,0,0,1,.456-2.955,2.641,2.641,0,0,1,3.864-.624,2.054,2.054,0,0,0,2.828,0,2.016,2.016,0,0,0,0-2.828Z"/><path class="b" d="M262.041,92.7a36.214,36.214,0,0,0,8.316,16.554c4.378,4.964,10.224,9.062,16.895,10.012a2.068,2.068,0,0,0,2.461-1.4,2.015,2.015,0,0,0-1.4-2.46c-11.6-1.651-20.169-12.842-22.418-23.773-.518-2.52-4.375-1.453-3.857,1.064Z"/><path class="b" d="M332.477,76.913c1.57-9.633.646-19.834-4.595-28.275a37.833,37.833,0,0,0-22.37-16.349,40.523,40.523,0,0,0-28.337,2.9,37.808,37.808,0,0,0-15.43,14.761,36.331,36.331,0,0,0-4.361,13.565,47.876,47.876,0,0,0,.592,13.4,2.015,2.015,0,0,0,2.46,1.4,2.048,2.048,0,0,0,1.4-2.461c-1.179-7.273-.981-14.794,2.176-21.575a33.672,33.672,0,0,1,12.267-13.953,35.706,35.706,0,0,1,24-5.013,34.505,34.505,0,0,1,22.048,12.363c6.388,7.854,7.887,18.411,6.3,28.175a2.062,2.062,0,0,0,1.4,2.461,2.017,2.017,0,0,0,2.46-1.4Z"/><path class="b" d="M288.955,102.79c1.641,1.607,4.193,2.113,6.405,2.111s4.764-.5,6.406-2.111a2,2,0,0,0-2.829-2.829c-.077.076-.39.326-.065.077s-.074.041-.171.1c-.13.08-.263.153-.4.221-.087.044-.195.079-.277.13.122-.076.429-.163.117-.055a9.367,9.367,0,0,1-1.327.363c-.086.016-.587.131-.073.022a3.48,3.48,0,0,1-.408.041q-.486.04-.974.04c-.3,0-.6-.01-.892-.033a2,2,0,0,1-.492-.048c.2.092.275.04,0-.009a8.225,8.225,0,0,1-1.345-.356c-.169-.062-.406-.237.063.035-.073-.042-.156-.071-.232-.108a4.992,4.992,0,0,1-.442-.243c-.109-.067-.209-.152-.32-.216.563.325.255.2.084.038a2,2,0,0,0-2.828,2.829Z"/><path class="b" d="M294.472,89.079a29.1,29.1,0,0,1,.681,3.114l-.072-.532a1.934,1.934,0,0,1,.012.43l.071-.531a1.066,1.066,0,0,1-.047.193l.2-.478a.714.714,0,0,1-.069.124l.313-.4a.644.644,0,0,1-.1.1l.4-.313a2,2,0,0,1-.246.131l.477-.2a1.778,1.778,0,0,1-.415.121l.531-.071a1.641,1.641,0,0,1-.39,0l.532.072c-.147-.021-.292-.057-.439-.076a1.5,1.5,0,0,0-.8-.036,1.486,1.486,0,0,0-.744.237,2,2,0,0,0-.718,2.737,1.921,1.921,0,0,0,1.2.919c.37.05.73.143,1.107.159a3.6,3.6,0,0,0,1.678-.405A2.509,2.509,0,0,0,299,92.723,3.943,3.943,0,0,0,298.988,91c-.169-1-.4-2-.659-2.981a2.061,2.061,0,0,0-.919-1.2,2,2,0,0,0-2.736.717,2.1,2.1,0,0,0-.2,1.541Z"/><path class="b" d="M278.582,80.788c-.508,1.652-.177,5.452,2.953,5.776,4.136-.025,4.356-4.62,2.964-6.78C283.359,78.015,280.006,77.28,278.582,80.788Z"/><path class="b" d="M311.571,80.788c.509,1.652.177,5.452-2.952,5.776-4.137-.025-4.357-4.62-2.965-6.78C306.794,78.015,310.147,77.28,311.571,80.788Z"/><path class="b" d="M302.747,58.205a85.717,85.717,0,0,1-34.559,16.056c-2.514.548-1.45,4.405,1.063,3.857a90.072,90.072,0,0,0,36.324-17.085,2.01,2.01,0,0,0,0-2.828,2.049,2.049,0,0,0-2.828,0Z"/><path class="b" d="M302.887,60.628a28.73,28.73,0,0,0,3.12,4.792,51.27,51.27,0,0,0,3.829,4.633,50.892,50.892,0,0,0,9.868,8.274c2.2,1.357,4.207-2.1,2.019-3.454-.951-.588-1.881-1.2-2.786-1.856-.43-.313-1.258-1.01-1.868-1.565-1.5-1.363-3-2.764-4.4-4.228a44.405,44.405,0,0,1-3.346-4.011,28.049,28.049,0,0,1-2.978-4.6,2.018,2.018,0,0,0-2.736-.717,2.043,2.043,0,0,0-.718,2.736Z"/><path class="d" d="M275.4,121.878a2.5,2.5,0,0,0-3.382,1.947l-4.2,19.048c-.222,1.006-.386,2.236.31,2.929a2.384,2.384,0,0,0,2.06.394c5.2-.676,20.956-7.548,24.334-8.449a2.235,2.235,0,0,1,1.134-.008c3.416.866,19.125,7.783,24.311,8.457a2.387,2.387,0,0,0,2.061-.394c.7-.693.531-1.923.309-2.929l-4.2-19.048a2.5,2.5,0,0,0-3.382-1.947c-7.517,3.213-18.694,8.314-19.677,8.314S282.916,125.091,275.4,121.878Z"/><path class="b" d="M275.931,119.949c-3.008-1.053-5.375,1.222-5.984,3.987l-1.276,5.784c-.917,4.159-1.872,8.311-2.751,12.478a5.98,5.98,0,0,0,.206,4.222c1.109,1.957,3.28,1.965,5.239,1.6a51.368,51.368,0,0,0,7.88-2.422c3.085-1.114,6.139-2.311,9.2-3.5,1.285-.5,2.571-1,3.863-1.482a12.971,12.971,0,0,1,2.593-.9,5.474,5.474,0,0,1,2.242.606c1.227.442,2.444.913,3.66,1.385,3.1,1.2,6.192,2.427,9.312,3.578a62.507,62.507,0,0,0,8.22,2.637c1.737.378,3.7.632,5.109-.709,1.342-1.283,1.157-3.268.816-4.911-.824-3.972-1.748-7.925-2.621-11.886l-1.361-6.17c-.538-2.444-2.051-4.744-4.9-4.542-1.9.134-3.958,1.446-5.684,2.2q-2.82,1.231-5.634,2.471c-2.792,1.223-5.575,2.528-8.441,3.571a3.764,3.764,0,0,0-.9.29c.216-.181,1.164.183.353-.106-1.067-.38-2.115-.8-3.159-1.24-3.436-1.444-6.837-2.969-10.25-4.464q-2.62-1.148-5.249-2.278a2.067,2.067,0,0,0-2.737.718,2.014,2.014,0,0,0,.718,2.736c6.226,2.665,12.355,5.629,18.682,8.049a5.681,5.681,0,0,0,2.05.536,6.724,6.724,0,0,0,2.225-.64c2.944-1.15,5.832-2.45,8.726-3.718q2.563-1.123,5.125-2.248,1.254-.549,2.509-1.093c.456-.2,1.512-.91,2.01-.8.688.154.863,2.352.976,2.867l2.976,13.5c.246,1.114.506,2.226.738,3.343.061.3.087.58.121.88.014.132.374.083-.014-.036-.354-.108-.89-.123-1.308-.219-1.184-.27-2.348-.63-3.5-1.006-5.628-1.832-11.075-4.164-16.619-6.227-2.017-.751-3.782-1.429-5.939-.714-2.218.735-4.387,1.628-6.564,2.474-5.225,2.031-10.583,4.473-16.106,5.576-.259.052-1.079.109-.955.233s.193-.8.236-1.007c.089-.425.187-.848.28-1.272l1.306-5.921c.853-3.869,1.64-7.758,2.56-11.611.145-.605.291-.979.964-.743C277.3,124.659,278.348,120.8,275.931,119.949Z"/><path class="b" d="M324.888,112.016a113.339,113.339,0,0,1,12.194,8.124c1.793,1.391,3.531,2.853,5.22,4.367q1.363,1.222,2.684,2.493a20.029,20.029,0,0,1,2.565,2.536l-.273-1.009.03.228.273-1.009c.184-.3-.757.251-.886.315q-.645.319-1.3.613c-.733.328-1.481.622-2.235.9-1.746.647-3.53,1.192-5.33,1.668a108.4,108.4,0,0,1-11.033,2.216,2.013,2.013,0,0,0-1.4,2.46,2.049,2.049,0,0,0,2.46,1.4,106.918,106.918,0,0,0,11.243-2.272,41.668,41.668,0,0,0,10.693-4.088,2.711,2.711,0,0,0,1.513-2.2,3.375,3.375,0,0,0-1.267-2.387q-1.961-1.984-4.012-3.874a103.745,103.745,0,0,0-8.284-6.834,119.086,119.086,0,0,0-10.838-7.1c-2.226-1.305-4.241,2.151-2.019,3.453Z"/><path class="b" d="M265.39,108.7A103.62,103.62,0,0,0,247.147,121.6q-1.959,1.735-3.823,3.575c-1.2,1.178-3.469,2.883-2.373,4.81.777,1.365,2.861,1.842,4.228,2.385q2.135.847,4.326,1.54a87.437,87.437,0,0,0,11.6,2.669,2.059,2.059,0,0,0,2.46-1.4,2.016,2.016,0,0,0-1.4-2.46,93.111,93.111,0,0,1-10.049-2.2q-2.135-.613-4.221-1.375a21.64,21.64,0,0,1-4.067-1.694l.717.718-.139-.2.2,1.541a10.352,10.352,0,0,1,.98-.942q.564-.565,1.136-1.121,1.3-1.261,2.647-2.474c1.78-1.6,3.616-3.15,5.513-4.614a101.066,101.066,0,0,1,12.526-8.21c2.248-1.254.233-4.71-2.019-3.453Z"/><path class="c" d="M277.91,33.187c1.753-11.059,3.318-19.5,4.575-26.72a5.883,5.883,0,0,1,4.949-4.4c6.828-.383,15.619.9,22.5,2.374,6.71,1.434,15.41,3.644,21.515,6.725a5.374,5.374,0,0,1,2.727,5.64c-1.852,8.29-3.682,15.171-7.6,29.449,2.889,2.689,7.648,4.406,10.288,7.72a6.076,6.076,0,0,1,1.039,6.384c-1.063,2.166-3.92,3.005-6.523,3.383-11.191,1.626-22.349-.261-33.567-2.246-11.049-2.776-22-5.616-31.551-11.676-2.221-1.409-4.458-3.378-4.57-5.754a6.03,6.03,0,0,1,3.559-5.4c2.329-1.2,5.148-1.517,7.843-1.882C274.579,36.583,277.767,34.084,277.91,33.187Z"/><path class="b" d="M322.911,48.877a29.16,29.16,0,0,1-9.2.594A84.13,84.13,0,0,1,300.2,47.585a87.835,87.835,0,0,1-12.779-3.715,29.642,29.642,0,0,1-8.093-4.214c-1.968-1.631-4.813,1.183-2.829,2.829,4.5,3.734,10.532,5.7,16.066,7.305a90.88,90.88,0,0,0,22.5,3.735,30.363,30.363,0,0,0,8.911-.791c2.477-.688,1.425-4.548-1.063-3.857Z"/><path class="b" d="M271.925,34.941c-3.786.51-8.014,1.181-10.546,4.357a7.089,7.089,0,0,0,.525,9.567c2.6,2.836,6.527,4.684,9.953,6.3a91.166,91.166,0,0,0,11.193,4.348c3.9,1.248,7.865,2.3,11.835,3.305A122.4,122.4,0,0,0,308,65.184a108.064,108.064,0,0,0,13.172,1.165,48.665,48.665,0,0,0,12.711-1.061c3.987-1.018,7.08-3.937,6.422-8.33-.669-4.472-4.725-7.1-8.268-9.293-2.194-1.361-4.2,2.1-2.019,3.453,2.382,1.477,5.994,3.4,6.377,6.534.348,2.85-2.607,3.65-4.828,4.049-7.2,1.29-14.823.674-22.017-.306-3.732-.508-7.518-1.034-11.2-1.826-3.348-.72-6.678-1.686-9.969-2.625a83.372,83.372,0,0,1-19.2-7.694c-2.076-1.206-6.528-3.46-5.26-6.538,1.328-3.226,6.167-3.523,9.073-3.914a2.011,2.011,0,0,0,1.4-2.46,2.055,2.055,0,0,0-2.46-1.4Z"/><path class="b" d="M279.885,33.422c1.194-7.5,2.507-14.978,3.831-22.455.445-2.513.457-6.393,3.718-6.9a28.641,28.641,0,0,1,5.639.012c1.942.1,3.879.275,5.809.5A129.806,129.806,0,0,1,321,9.3c1.789.541,3.564,1.129,5.311,1.793a17.921,17.921,0,0,1,4.713,2.154c2.27,1.811.76,5.146.216,7.438-1.751,7.389-3.76,14.716-5.765,22.04-.68,2.486,3.177,3.547,3.857,1.063,1.939-7.083,3.882-14.168,5.592-21.31.766-3.2,2.1-6.638.593-9.8-1.689-3.552-6.251-4.792-9.678-6A125.394,125.394,0,0,0,302.016,1a81.94,81.94,0,0,0-12.638-1,9.418,9.418,0,0,0-5.5,1.3,7.749,7.749,0,0,0-3.325,4.633c-.837,3.826-1.372,7.75-2.047,11.609q-1.293,7.4-2.481,14.815a2.062,2.062,0,0,0,1.4,2.46,2.015,2.015,0,0,0,2.46-1.4Z"/><path class="e" d="M143.554,95.063a8.268,8.268,0,0,1,10.626,6.105c.891,5.632,1.485,14.036,6.776,15.928-1.067,3.41-7.2,4.367-9.405,4.433-2.794.11-5.181-.946-7.6-2.2a13.9,13.9,0,0,1-5.786-5.423,4.213,4.213,0,0,1-.33-.715"/><path class="b" d="M144.085,96.991a6.6,6.6,0,0,1,6.928,2c1.454,1.752,1.441,4.147,1.777,6.341.8,5.237,2.1,11.565,7.634,13.687l-1.4-2.46c-.8,2.263-5.365,2.869-7.317,2.959a13.216,13.216,0,0,1-6.751-1.921c-2.015-1.063-4.306-2.749-5.2-4.943a2.064,2.064,0,0,0-2.46-1.4,2.014,2.014,0,0,0-1.4,2.461,14.775,14.775,0,0,0,6.508,7.046c2.817,1.6,6,2.905,9.3,2.754,4.137-.19,9.638-1.544,11.174-5.895a2.043,2.043,0,0,0-1.4-2.461c-2.171-.832-3.141-3.425-3.731-5.47a66.093,66.093,0,0,1-1.56-8.489,9.947,9.947,0,0,0-4-6.526,10.75,10.75,0,0,0-9.176-1.548c-2.5.628-1.438,4.487,1.063,3.857Z"/><path class="a" d="M97.776,60.473C83.428,66.6,85.451,78.965,85.451,78.965a4.737,4.737,0,0,0-3.79-1.109,4.474,4.474,0,0,0-3.215,2.138,6.317,6.317,0,0,0-.662,2.543A18.954,18.954,0,0,0,79.716,92.58a12.051,12.051,0,0,0,3.114,4.087c1.053.84,2.374,1.762,4.1,1.3l.808-.219a34.054,34.054,0,0,0,6.751,11.474,30.848,30.848,0,0,0,9.682,7.477c-.046.517-.142,1.13-.28,1.916-.372,2.131-.956,4.519-3.412,6.224,4.777,4.84,11.425,6.549,18.049,6.549,5.288,0,11.348-1.142,15.864-6.866-2.113-1.675-2.648-3.906-2.988-5.909-.121-.691-.209-1.261-.273-1.749,8.156-3,14.793-13.6,15.929-16.475.2-.565.643-1.72.979-3.046l.547.183a1.33,1.33,0,0,0,.2.055,3.63,3.63,0,0,0,3.443-.913,12.2,12.2,0,0,0,3.113-4.081,18.981,18.981,0,0,0,1.925-10.043,6.317,6.317,0,0,0-.66-2.552,4.492,4.492,0,0,0-3.212-2.134,4.937,4.937,0,0,0-3.146.627s-.144-21.366-32.323-21.366C109,57.116,102.5,58.456,97.776,60.473Z"/><path class="b" d="M95.68,129.489c1.543-.636,3.032-1.4,4.548-2.1l.348-.157c.258-.12-.54.224-.339.142a6.073,6.073,0,0,0,.584-.256,9.238,9.238,0,0,0,2.018-1.5,9.744,9.744,0,0,0,2.326-3.709,19.141,19.141,0,0,0,.888-4.081,2.21,2.21,0,0,0-.2-1.541,2,2,0,0,0-3.656.478,22.844,22.844,0,0,1-.67,3.42c-.072.243-.155.482-.241.72a1.836,1.836,0,0,0-.069.179c-.008-.007.174-.373.075-.181-.069.135-.127.276-.2.411a7.336,7.336,0,0,1-.442.745c-.043.064-.31.4-.127.187s-.15.167-.208.23c-.2.219-.42.419-.643.617-.278.249.225-.144-.091.075-.159.111-.319.22-.483.322-.1.065-.417.172-.065.078.526-.141.167-.07.139-.049a2.822,2.822,0,0,1-.528.222c-.1.041-.19.084-.285.127-.73.331-1.455.675-2.181,1.016l-1.254.589c-.237.11-1.29.562-.309.158a2.053,2.053,0,0,0-1.4,2.46,2.019,2.019,0,0,0,2.46,1.4Z"/><path class="b" d="M129.2,117.519c.372,2.736.916,5.392,2.747,7.559a9.492,9.492,0,0,0,1.787,1.572,6.222,6.222,0,0,0,1.3.714c.043.017-.639-.283-.234-.1q1.105.507,2.2,1.027c.707.332,1.408.686,2.127.991a2.059,2.059,0,0,0,2.737-.717,2.022,2.022,0,0,0-.718-2.737c-1.341-.569-2.643-1.24-3.967-1.851-.336-.155-.725-.278-1.044-.457-.013-.007.446.235.123.005-.141-.1-.294-.185-.437-.283s-.374-.319-.122-.085c-.134-.124-.278-.238-.411-.365-.217-.208-.41-.432-.606-.658-.149-.172.1.111.093.12a1.088,1.088,0,0,0-.122-.174c-.091-.134-.179-.271-.261-.411-.138-.235-.256-.478-.374-.723-.163-.339.119.338,0-.014-.05-.145-.105-.288-.153-.434a22.886,22.886,0,0,1-.806-4.045,2,2,0,0,0-2.46-1.4,2.066,2.066,0,0,0-1.4,2.46Z"/><path class="e" d="M127.181,60.963a47.268,47.268,0,0,0,7.151,9.537c5.225,4.967,5.144,5.434,14.175,10.464a4.243,4.243,0,0,1,4.568-3.006,46.569,46.569,0,0,0,.654-10.123,34.778,34.778,0,0,0-5.007-16.843,33.131,33.131,0,0,0-4.607-5.828c-.7-.708-1.767-1.745-2.492-2.375a41.428,41.428,0,0,0-6.062-4.02,35.755,35.755,0,0,0-5.3-2.374,37.71,37.71,0,0,0-12.55-2.058A35.843,35.843,0,0,0,96.453,40.88,34.171,34.171,0,0,0,81.705,67.835c-.2,4.538,1.086,12.237.868,10.122a4.725,4.725,0,0,1,2.3.707,87.374,87.374,0,0,0,41.86-17.7"/><path class="b" d="M151.019,80.517a2.639,2.639,0,0,1,3.863.624,6.085,6.085,0,0,1,.453,2.735,16.131,16.131,0,0,1-.233,3.233,16.955,16.955,0,0,1-2.271,6c-.776,1.233-2.092,3.053-3.714,2.62-2.49-.664-3.552,3.193-1.063,3.857,3.383.9,6.03-1.29,7.875-3.921a20.077,20.077,0,0,0,3.26-9.043c.365-2.985.379-6.8-2.044-8.97a6.791,6.791,0,0,0-8.954.038,2.016,2.016,0,0,0,0,2.829,2.043,2.043,0,0,0,2.828,0Z"/><path class="b" d="M86.865,77.688a6.793,6.793,0,0,0-8.954-.038C75.429,79.875,75.5,83.8,75.9,86.845a19.787,19.787,0,0,0,3.42,9.08c1.9,2.61,4.751,4.854,8.149,4.105,2.512-.554,1.449-4.411-1.064-3.857-1.588.35-3.235-1.642-4-2.8a16.692,16.692,0,0,1-2.413-6.1,15.952,15.952,0,0,1-.269-3.183,6.4,6.4,0,0,1,.456-2.955,2.639,2.639,0,0,1,3.863-.624,2.057,2.057,0,0,0,2.829,0,2.017,2.017,0,0,0,0-2.829Z"/><path class="b" d="M125.314,59.549A85.7,85.7,0,0,1,90.755,75.605c-2.514.548-1.45,4.405,1.063,3.857a90.057,90.057,0,0,0,36.324-17.084,2.012,2.012,0,0,0,0-2.829,2.051,2.051,0,0,0-2.828,0Z"/><path class="b" d="M125.454,61.973a28.829,28.829,0,0,0,3.119,4.792A51.436,51.436,0,0,0,132.4,71.4a50.821,50.821,0,0,0,9.868,8.274c2.2,1.358,4.206-2.1,2.019-3.454-.951-.587-1.882-1.2-2.786-1.856-.43-.312-1.259-1.009-1.869-1.564-1.5-1.364-3-2.764-4.4-4.228a44.557,44.557,0,0,1-3.345-4.011,27.984,27.984,0,0,1-2.978-4.6,2.018,2.018,0,0,0-2.736-.718,2.044,2.044,0,0,0-.718,2.737Z"/><path class="b" d="M146.464,94.7a15.721,15.721,0,0,1-1.044,4.49c-.094.267-.191.532-.286.8-.125.35.194-.4.022-.06-.152.308-.3.618-.458.921a37.9,37.9,0,0,1-3.489,5.341c-3.151,4.081-7.315,8.287-12.524,9.429-2.514.551-1.45,4.408,1.063,3.857,6.069-1.33,10.931-6.108,14.6-10.863,3.134-4.058,5.884-8.642,6.112-13.913.112-2.574-3.888-2.568-4,0Z"/><path class="b" d="M84.608,94.042A36.2,36.2,0,0,0,92.924,110.6c4.378,4.964,10.224,9.063,16.895,10.013a2.067,2.067,0,0,0,2.46-1.4,2.013,2.013,0,0,0-1.4-2.46c-11.6-1.652-20.17-12.842-22.418-23.773-.519-2.52-4.375-1.454-3.857,1.063Z"/><path class="b" d="M155.044,78.257c1.57-9.632.646-19.834-4.595-28.274a37.839,37.839,0,0,0-22.37-16.35,40.523,40.523,0,0,0-28.337,2.9,37.812,37.812,0,0,0-15.43,14.76,36.336,36.336,0,0,0-4.361,13.566,47.831,47.831,0,0,0,.592,13.4,2.015,2.015,0,0,0,2.46,1.4,2.049,2.049,0,0,0,1.4-2.46c-1.179-7.273-.981-14.794,2.176-21.576A33.685,33.685,0,0,1,98.843,41.668a35.712,35.712,0,0,1,24-5.013,34.514,34.514,0,0,1,22.048,12.364c6.388,7.853,7.887,18.411,6.3,28.175a2.062,2.062,0,0,0,1.4,2.46,2.016,2.016,0,0,0,2.461-1.4Z"/><path class="b" d="M111.522,104.134c1.641,1.607,4.193,2.113,6.405,2.112s4.763-.5,6.406-2.112a2,2,0,0,0-2.829-2.828c-.077.075-.39.326-.065.076s-.074.042-.172.1q-.193.119-.4.221c-.087.044-.195.079-.277.13.122-.076.429-.164.117-.056a9.235,9.235,0,0,1-1.327.363c-.087.016-.587.131-.074.022a3.443,3.443,0,0,1-.407.042c-.324.027-.649.039-.974.04-.3,0-.6-.011-.892-.033a1.958,1.958,0,0,1-.492-.049c.2.092.275.041,0-.009a8.126,8.126,0,0,1-1.345-.356c-.17-.061-.406-.237.063.036-.073-.042-.156-.071-.232-.108-.151-.075-.3-.155-.442-.243-.109-.067-.21-.153-.32-.217.563.325.255.206.084.039a2,2,0,0,0-2.828,2.828Z"/><path class="b" d="M117.039,90.424a29.038,29.038,0,0,1,.68,3.114l-.071-.532a1.933,1.933,0,0,1,.012.43l.071-.532a1.046,1.046,0,0,1-.047.193l.2-.477a.748.748,0,0,1-.068.124l.313-.405a.7.7,0,0,1-.1.1l.405-.313a2.075,2.075,0,0,1-.247.13l.478-.2a1.821,1.821,0,0,1-.416.121l.532-.071a1.7,1.7,0,0,1-.39,0l.532.071c-.148-.02-.292-.056-.439-.076a1.526,1.526,0,0,0-.8-.036,1.5,1.5,0,0,0-.743.238,2,2,0,0,0-.718,2.736,1.912,1.912,0,0,0,1.195.919c.371.05.731.143,1.108.16a3.6,3.6,0,0,0,1.678-.406,2.507,2.507,0,0,0,1.365-1.644,3.938,3.938,0,0,0-.015-1.725c-.169-1-.4-2-.659-2.982a2.064,2.064,0,0,0-.919-1.195,2,2,0,0,0-2.737.718,2.1,2.1,0,0,0-.2,1.541Z"/><path class="b" d="M101.149,82.133c-.508,1.652-.177,5.452,2.953,5.775,4.136-.024,4.356-4.619,2.964-6.779C105.926,79.36,102.573,78.624,101.149,82.133Z"/><path class="b" d="M134.138,82.133c.508,1.652.177,5.452-2.952,5.775-4.137-.025-4.357-4.619-2.965-6.779C129.361,79.36,132.713,78.624,134.138,82.133Z"/><path class="f" d="M80.246,52.454c-1.979-1.3-3.637-2.9-3.846-4.7-.259-2.238,1.421-4.239,3.9-5.295,3.424-1.46,7.877-1.466,11.739-1.983,12.459-11.313,18.167-18.511,32.012-26.239,3.106-1.735,6.78-1.949,10.475-1.64,6.325.528,11.871,4.307,15.552,9.481a166.752,166.752,0,0,1,9.2,14.478,1.2,1.2,0,0,1-1.245,1.7c-2.9-.361-5.612-.929-8.888-1.341a95.435,95.435,0,0,1,4.313,16.114c4.576,3.859,9.673,4.517,13.049,8.654a3.47,3.47,0,0,1,.743,2.618c-.1,1.42-1.888,2.34-3.327,2.721-5.938,1.573-13.959,1.38-20.406,1.03A174.574,174.574,0,0,1,121.3,65.6c-13.608-2.522-27.47-5.781-39.14-12.017C81.51,53.234,80.862,52.858,80.246,52.454Z"/><path class="b" d="M88.724,38.83c-4.178.4-9.274.689-12.379,3.916A6.517,6.517,0,0,0,74.4,47.754a7.663,7.663,0,0,0,3,5.064c3.477,2.891,7.962,4.68,12.118,6.357a116.583,116.583,0,0,0,13.115,4.34,191.709,191.709,0,0,0,28.277,5.5c4.91.564,9.846.924,14.783,1.14a86.031,86.031,0,0,0,13.032-.218c3.711-.4,10.711-1.028,10.53-6.178-.172-4.921-6.189-7.379-9.9-9.3-2.282-1.183-4.307,2.267-2.019,3.454,1.586.822,3.213,1.583,4.725,2.539,1.035.654,2.944,1.828,3.191,3.135.233,1.233-1.941,1.54-2.769,1.729a36.314,36.314,0,0,1-5.2.761c-7.852.631-15.886,0-23.705-.773a187.036,187.036,0,0,1-24.843-4.365,112.966,112.966,0,0,1-22.481-7.527,32.917,32.917,0,0,1-5.744-3.2c-1.089-.821-2.565-2.1-2.007-3.621.547-1.488,2.27-2.258,3.668-2.689a32.517,32.517,0,0,1,6.55-1.071,2.056,2.056,0,0,0,2-2,2.014,2.014,0,0,0-2-2Z"/><path class="b" d="M144.685,54.456a62.748,62.748,0,0,1-16.668-.864,103.432,103.432,0,0,1-21.946-5.851,29.763,29.763,0,0,1-7.436-4.029c-1.972-1.625-4.818,1.19-2.829,2.829,4.824,3.975,11.263,6.073,17.175,7.789a110.884,110.884,0,0,0,22.744,4.207,51.365,51.365,0,0,0,8.96-.081,2.058,2.058,0,0,0,2-2,2.014,2.014,0,0,0-2-2Z"/><path class="b" d="M147.445,38.088a96.766,96.766,0,0,1,3.57,12.906,2.013,2.013,0,0,0,2.46,1.4,2.048,2.048,0,0,0,1.4-2.46A96.871,96.871,0,0,0,151.3,37.025a2,2,0,0,0-3.858,1.063Z"/><path class="b" d="M96.753,38.843c8.172-7.642,15.963-15.548,25.631-21.335,2.633-1.576,5.058-2.822,8.181-2.995a20.545,20.545,0,0,1,8.531,1.18c5.488,2.1,8.857,6.671,12,11.381,2.028,3.039,3.944,6.15,5.774,9.312l.226.392q.289.856.433-.147.939-.429.188-.414l-.42-.06c-.839-.119-1.676-.257-2.513-.393-1.96-.321-3.919-.631-5.89-.878a2.01,2.01,0,0,0-2,2,2.051,2.051,0,0,0,2,2c1.756.22,3.5.52,5.247.8,1.656.268,3.91,1.028,5.487.22,3.879-1.985.171-6.485-1.259-8.845-3.608-5.956-7.324-12.505-13.136-16.575a23.058,23.058,0,0,0-18.988-3.3c-3.255.928-6.234,3.006-9.038,4.845a91.661,91.661,0,0,0-7.709,5.674c-5.464,4.459-10.428,9.5-15.574,14.309-1.885,1.762.948,4.586,2.828,2.828Z"/><path class="a" d="M96.247,326.772a17.679,17.679,0,0,1-3.27,2.552,21.458,21.458,0,0,1-13.355,2.741,12.642,12.642,0,0,1-5.676-2,7.057,7.057,0,0,1-3.1-5c-.242-2.869,1.5-5.587,3.54-7.619,5.237-5.212,10.788-10.328,15.414-16.033,2.319,3.192,6.473,4.106,10.195,3.344,3.423-.7,6.473-2.573,9.449-4.4,2.847-1.751,3.276,6.469,3.344,8.252.106,2.821.569,6.549-1.669,8.635a22.558,22.558,0,0,1-7.16,3.894C100.528,322.184,98.755,324.4,96.247,326.772Z"/><path class="a" d="M139.04,326.772a17.679,17.679,0,0,0,3.27,2.552,21.458,21.458,0,0,0,13.355,2.741,12.642,12.642,0,0,0,5.676-2,7.057,7.057,0,0,0,3.1-5c.242-2.869-1.5-5.587-3.54-7.619-5.237-5.212-10.789-10.328-15.414-16.033-2.319,3.192-6.473,4.106-10.195,3.344-3.423-.7-6.473-2.573-9.449-4.4-2.847-1.751-3.276,6.469-3.344,8.252-.106,2.821-.569,6.549,1.669,8.635a22.558,22.558,0,0,0,7.16,3.894C134.759,322.184,136.532,324.4,139.04,326.772Z"/><path class="a" d="M92.093,302.688c0,.277,0,.564,0,.855A10.9,10.9,0,0,0,100,304.755c3.286-.673,6.229-2.425,9.092-4.184.42-2.3.734-4.621.976-6.947-5.895-.01-10.978-.077-17.707-.421q-.082,3.284-.263,6.567S92.1,301.079,92.093,302.688Z"/><path class="a" d="M144.343,302.168q-.207-4.479-.447-8.956c-6.741.342-11.848.4-17.806.412q.432,3.64.686,7.3a27.143,27.143,0,0,0,8.512,3.831,10.424,10.424,0,0,0,9.078-2.1Z"/><path class="b" d="M141.709,290.6q.346,6.036.627,12.078a2,2,0,0,0,4,0q-.281-6.041-.627-12.078a2,2,0,0,0-4,0Z"/><path class="b" d="M123.763,291.525c.065.479-.025-.195.033.243.029.226.059.451.088.677.049.388.1.775.144,1.163q.147,1.211.273,2.424.253,2.427.424,4.862a2,2,0,0,0,4,0c-.246-3.491-.632-6.966-1.1-10.432a2,2,0,0,0-2.46-1.4,2.065,2.065,0,0,0-1.4,2.46Z"/><path class="b" d="M111.2,300.617c.532-3.19.892-6.406,1.15-9.628a2.008,2.008,0,0,0-2-2,2.049,2.049,0,0,0-2,2c-.12,1.492-.258,2.983-.43,4.471q-.061.536-.129,1.07c-.022.178-.046.356-.069.535.058-.445-.011.085-.025.18q-.16,1.157-.354,2.309a2.049,2.049,0,0,0,1.4,2.46,2.023,2.023,0,0,0,2.46-1.4Z"/><path class="b" d="M94.092,300.317q.263-4.87.319-9.746a2,2,0,0,0-4,0q-.052,4.875-.319,9.746a2.014,2.014,0,0,0,2,2,2.045,2.045,0,0,0,2-2Z"/><path class="b" d="M94.833,325.358a18.229,18.229,0,0,1-9.483,4.619c-3.265.578-7.4.439-10.214-1.517a5.2,5.2,0,0,1-2.286-3.4,6.572,6.572,0,0,1,1.464-4.479,29.029,29.029,0,0,1,3.632-3.839c1.383-1.357,2.772-2.709,4.148-4.073a127.362,127.362,0,0,0,9.125-9.847l-3.142-.4c2.863,3.761,7.341,5.109,11.928,4.359a22.5,22.5,0,0,0,7.057-2.687c1.088-.6,2.162-1.232,3.209-1.9.582-.37.1-.024-.348-.122-.107-.024-.356-.251-.411-.253.087,0,.255.383.151.149-.123-.279.3.651.157.312a6.966,6.966,0,0,1,.271.836,16.662,16.662,0,0,1,.431,2.134c.128.9.217,2.185.266,3.247a19.473,19.473,0,0,1-.1,5.51c-.461,1.854-2.058,2.728-3.636,3.6-2.107,1.159-4.492,1.672-6.555,2.886a32.5,32.5,0,0,0-5.661,4.87c-1.866,1.781.965,4.607,2.828,2.828,1.637-1.562,3.162-3.325,5.17-4.425,1.924-1.054,4.122-1.56,6.072-2.616,1.868-1.011,3.921-2.264,4.932-4.208a12.89,12.89,0,0,0,1.04-6.517c-.115-2.909-.145-6.01-1.056-8.8-.45-1.378-1.212-2.9-2.708-3.364-2.064-.636-4.021,1.231-5.684,2.168-3.994,2.249-10.464,4.485-13.9-.023-.7-.914-2.238-1.511-3.141-.4a130.271,130.271,0,0,1-9.455,10.174c-1.653,1.633-3.321,3.251-4.974,4.883a19.566,19.566,0,0,0-3.924,4.876,8.894,8.894,0,0,0,1.893,11.084c3.317,2.874,8.215,3.543,12.449,3.1a22.533,22.533,0,0,0,13.282-5.932C99.544,326.423,96.711,323.6,94.833,325.358Z"/><path class="b" d="M137.626,328.186a21.949,21.949,0,0,0,11.461,5.686c4.227.7,9.18.53,12.9-1.838a8.9,8.9,0,0,0,3.934-10.547c-1.471-4.136-5.209-7.031-8.245-10.01A142.611,142.611,0,0,1,146.9,300c-.9-1.107-2.445-.51-3.141.4-2.91,3.822-8.46,2.764-12.155.946-1.115-.549-2.192-1.169-3.257-1.809a7.025,7.025,0,0,0-3.109-1.419,3.591,3.591,0,0,0-3.308,2.338c-1.212,2.582-1.32,5.656-1.445,8.464a20.551,20.551,0,0,0,.3,6.311,8.736,8.736,0,0,0,4.169,5.077,48.468,48.468,0,0,0,6.837,3.115c2.333,1.03,4.03,3.038,5.836,4.762,1.862,1.778,4.695-1.046,2.828-2.828a40.033,40.033,0,0,0-5.052-4.485c-1.749-1.181-3.786-1.616-5.668-2.507-1.548-.733-3.722-1.648-4.67-3.163-.965-1.544-.7-3.736-.621-5.461.12-2.527.041-5.135,1.024-7.463-.114.269.165-.284.216-.38-.222.416-.086,0-.016.021-.039-.013.239,0-.07.049-.206.035-.414.1-.626.124-.161.02-.32-.228-.221-.058.226.382,1.4.851,1.764,1.07a30.283,30.283,0,0,0,6.976,3.263c5.045,1.466,10.456.339,13.72-3.948l-3.142.4c2.489,3.05,5.192,5.911,7.971,8.7,2.683,2.69,5.592,5.224,8.125,8.056,2.041,2.283,3.349,5.579.921,8.085-2.406,2.483-6.5,2.766-9.746,2.5a18.12,18.12,0,0,1-10.885-4.8C138.577,323.6,135.742,326.422,137.626,328.186Z"/><path class="f" d="M74.814,209.966c-11.038-6.442-16.37-20.173-12.722-33.874.969-3.637,1.886-7.106,2.98-10.954,2.7-9.513,5.369-16.68,10.015-23.732,3.408-5.174,9.928-9.817,16.844-13.267l7.882-3.457.389-.17c4.778,5.092,11.566,6.873,18.329,6.873,5.31,0,11.4-1.151,15.92-6.936,3.068,1.089,5.557,2.073,8.873,3.468,6.916,3.449,13.468,8.315,16.876,13.489,4.646,7.052,9.188,19.515,12.421,32.331a38.212,38.212,0,0,1,1.2,10.442c-.379,9.062-4.522,18.195-12.432,22.633l-9.227,5.05c1.793,25.055,4.6,64.491,5.4,76.483a4.255,4.255,0,0,1-.385,2.112c-1.023,1.8-4.543,2.464-7.128,2.629-9.9.627-22.154.539-32.285.539s-22.792.088-32.7-.539c-2.6-.165-5.676-.572-6.7-2.387a4.076,4.076,0,0,1-.385-2.1c1.078-16.458,3.38-51.856,4.865-75.528A27.4,27.4,0,0,1,74.814,209.966Z"/><path class="b" d="M174.549,173.205a142.638,142.638,0,0,0-9.176-26.583,39.888,39.888,0,0,0-5.925-9.428,45.757,45.757,0,0,0-10.229-8.286,73.858,73.858,0,0,0-14.236-6.388c-2.43-.866-3.475,3-1.064,3.857a70.673,70.673,0,0,1,11.746,5.067,45.612,45.612,0,0,1,10.018,7.571,33.752,33.752,0,0,1,5.822,8.773,100.593,100.593,0,0,1,4.652,11.295c1.75,4.987,3.236,10.063,4.535,15.185.632,2.494,4.491,1.437,3.857-1.063Z"/><path class="b" d="M85.513,211.538A25.386,25.386,0,0,1,68.206,201.35,29.1,29.1,0,0,1,63.13,181.3c.447-4.3,1.9-8.544,3.049-12.7,1.255-4.551,2.566-9.1,4.233-13.516a64.474,64.474,0,0,1,5.554-11.349,31.465,31.465,0,0,1,8.792-9.028c5.012-3.54,10.489-5.856,16.065-8.3a2.013,2.013,0,0,0,.717-2.736,2.049,2.049,0,0,0-2.736-.717c-5.033,2.207-10.013,4.28-14.626,7.32A38.329,38.329,0,0,0,73.767,139.8a59.985,59.985,0,0,0-6.27,11.835,124.383,124.383,0,0,0-4.613,13.886c-1.312,4.662-2.886,9.4-3.558,14.208a33.12,33.12,0,0,0,4.621,22.454,29.765,29.765,0,0,0,21.566,13.353,2.011,2.011,0,0,0,2-2,2.05,2.05,0,0,0-2-2Z"/><path class="b" d="M152.6,190.28l-.072.529h-3.857c-.216-1.021-.052-.305-.029,0,.037.482.072.965.108,1.447q.189,2.576.374,5.151.639,8.829,1.269,17.66,1.682,23.5,3.342,47,.679,9.648,1.351,19.3c.15,2.172.329,4.345.446,6.519.033.629.167,1.351-.3,1.83-.8.829-2.6,1.056-3.657,1.216a70.952,70.952,0,0,1-8.235.47c-12.592.418-25.218.272-37.815.219-6.3-.027-12.607-.1-18.9-.442a34.806,34.806,0,0,1-3.578-.289c-.834-.132-2.451-.32-2.945-1.143-.393-.654-.066-2.087-.017-2.829q.093-1.437.188-2.874,2.079-31.8,4.1-63.6.231-3.656.461-7.313c.161-2.57-3.84-2.561-4,0q-2.081,33.141-4.261,66.275-.208,3.186-.416,6.372c-.16,2.434-.612,5.109,1.312,7.006s5.043,2.136,7.587,2.306c3.083.206,6.174.309,9.263.387,12.909.324,25.853.238,38.766.126,3.273-.028,6.546-.08,9.817-.184a86.655,86.655,0,0,0,9.114-.538c2.472-.342,5.524-1.078,6.882-3.41.88-1.51.646-3.314.533-4.976q-.584-8.613-1.2-17.226-1.682-23.937-3.4-47.873c-.73-10.22-1.358-20.455-2.209-30.665a7.885,7.885,0,0,0-.108-.982c-.409-1.933-3.413-1.88-3.857,0,0,.009-.071.528-.071.535-.006,2.574,3.994,2.578,4,0Z"/><path class="b" d="M170.692,174.268a32.806,32.806,0,0,1-.514,18.523,22.374,22.374,0,0,1-9.8,12.294c-2.233,1.28-.221,4.737,2.019,3.454a26.549,26.549,0,0,0,11.513-14.334c2.451-6.826,2.278-14.011.637-21-.588-2.505-4.446-1.445-3.857,1.063Z"/><path class="b" d="M99.212,126.394c5.237,5.09,12.468,7.054,19.633,6.989,6.583-.059,12.815-2.26,17.02-7.52a2.063,2.063,0,0,0,0-2.829,2.014,2.014,0,0,0-2.828,0c-3.584,4.483-8.569,6.3-14.192,6.349-6.107.055-12.322-1.46-16.8-5.817-1.847-1.8-4.678,1.03-2.828,2.828Z"/><path class="g" d="M73.6,233.521c27.256-35.172,59.145-78.412,82.836-111.607a1.115,1.115,0,0,1,1.394-.218,15.606,15.606,0,0,1,5.3,3.9,1.118,1.118,0,0,1,.233,1.361c-23.356,33.8-56.616,78.818-83.884,114.005"/><path class="b" d="M75.01,234.935q16.921-21.839,33.429-43.994,16.676-22.318,33.045-44.863,4.245-5.845,8.466-11.706,2.089-2.9,4.174-5.808l1.924-2.685,1-1.406.444-.622.221-.309q.284-.53.2-.229l-1.009.273c.638-.061,1.467.62,2.01.98.846.562,1.512,1.3,2.308,1.905l.107.112q.319.465.14-.057l-.057-.275c-.1.152-.209.3-.314.455l-.949,1.37q-.965,1.389-1.93,2.776-3.8,5.446-7.63,10.864-8.33,11.769-16.8,23.434-17.774,24.49-36.027,48.629Q87.986,226.72,78.059,239.55a2.065,2.065,0,0,0,0,2.828,2.012,2.012,0,0,0,2.828,0q17.9-23.1,35.315-46.567,17.576-23.639,34.686-47.618,3.931-5.526,7.826-11.076,1.866-2.662,3.723-5.331.906-1.3,1.809-2.606c.675-.975,1.424-1.913,1.2-3.175-.371-2.075-2.731-3.691-4.354-4.794s-4.09-2.524-5.854-.926a15.093,15.093,0,0,0-1.86,2.48q-1.011,1.414-2.024,2.828-1.956,2.73-3.918,5.456-17.16,23.849-34.678,47.436Q94.81,202.67,76.467,226.559q-2.139,2.778-4.285,5.548a2.065,2.065,0,0,0,0,2.828,2.012,2.012,0,0,0,2.828,0Z"/><path class="e" d="M84.016,241.513c-2.826-5.611-8.587-14.656-17.11-17.327A140.893,140.893,0,0,1,57.173,249.5a93.982,93.982,0,0,0,10.308,9.431l18.556-12.811A37.83,37.83,0,0,0,84.016,241.513Z"/><path class="e" d="M34.075,314.284c8.572-6.378,16.953-14.966,22.276-23.895,6.586-11.048,6.815-13.566,8.962-21.811a131.62,131.62,0,0,1-16.775-15.372c-16.756,9.417-28.025,13.959-46.564,17.523,0,0-.243,11.41,8.191,23.805S34.075,314.284,34.075,314.284Z"/><path class="b" d="M74.736,256.349l12.311-8.5a2.076,2.076,0,0,0,.919-2.259A31.273,31.273,0,0,0,84.7,238.53,41.254,41.254,0,0,0,75.437,226.8a23.966,23.966,0,0,0-8-4.538,2.027,2.027,0,0,0-2.46,1.4,148.591,148.591,0,0,1-6.749,18.816,2.064,2.064,0,0,0,.717,2.737,2.016,2.016,0,0,0,2.737-.718,156.241,156.241,0,0,0,7.152-19.772l-2.461,1.4c5.714,1.845,10,6.658,13.159,11.57A53.657,53.657,0,0,1,83,243.978c.187.4.365.8.545,1.209.237.53-.052-.137.066.152.058.142.117.283.173.425a7.27,7.27,0,0,1,.33.891l.919-2.259-12.311,8.5c-2.105,1.453-.107,4.922,2.019,3.454Z"/><path class="b" d="M2.505,272.657a144.171,144.171,0,0,0,23.279-6.312A165.245,165.245,0,0,0,47.61,256.013c2.254-1.244.239-4.7-2.019-3.454a157.255,157.255,0,0,1-21.221,10.06A144.72,144.72,0,0,1,1.442,268.8c-2.525.488-1.456,4.344,1.063,3.857Z"/><path class="b" d="M63.037,269.379a62.254,62.254,0,0,1-5.153,14.271,83.632,83.632,0,0,1-14.263,19.676,93.435,93.435,0,0,1-10.555,9.231,2.063,2.063,0,0,0-.718,2.737,2.014,2.014,0,0,0,2.737.717,94.784,94.784,0,0,0,18.672-18.269A74.979,74.979,0,0,0,64.5,278.767a81.905,81.905,0,0,0,2.4-8.325c.637-2.5-3.22-3.56-3.857-1.063Z"/><path class="b" d="M71.542,259.561a86.227,86.227,0,0,1-15.529-14.447,2.014,2.014,0,0,0-2.829,0,2.047,2.047,0,0,0,0,2.828,90.07,90.07,0,0,0,16.339,15.073,2.014,2.014,0,0,0,2.737-.717,2.05,2.05,0,0,0-.718-2.737Z"/><path class="b" d="M69.333,269.152c-7.993-5.986-15.691-12.64-21.985-20.428a2.014,2.014,0,0,0-2.829,0,2.048,2.048,0,0,0,0,2.829c6.515,8.061,14.525,14.86,22.795,21.053a2.013,2.013,0,0,0,2.736-.717,2.049,2.049,0,0,0-.717-2.737Z"/><path class="b" d="M9.674,284.115a60.2,60.2,0,0,0,17.863-3.986,62.724,62.724,0,0,0,15-8.526,2.065,2.065,0,0,0,.717-2.737,2.013,2.013,0,0,0-2.736-.717A57.6,57.6,0,0,1,9.674,280.115c-2.552.188-2.572,4.189,0,4Z"/><path class="b" d="M42.866,279.949a67.157,67.157,0,0,1-7.837,10.126,92.5,92.5,0,0,1-9.89,8.195,2.067,2.067,0,0,0-.717,2.737,2.013,2.013,0,0,0,2.736.717,99.823,99.823,0,0,0,10.7-8.821,74.093,74.093,0,0,0,8.463-10.935,2,2,0,0,0-3.454-2.019Z"/><path class="a" d="M148.451,148.169a7.057,7.057,0,0,0-2.7-2.438,12.036,12.036,0,0,0-6.9-.972,8.059,8.059,0,0,0-5.049,3.54c-.624,1.14-.324,2.907-1.033,4.027-1.984,3.136-3.429,6.481-3.078,10.007a7.345,7.345,0,0,0,6.028,6.325c.811.094,1.638.147,2.446.168a10.2,10.2,0,0,0,8.554-3.891c3.416-4.268,4-11.019,2.263-15.61A6.327,6.327,0,0,0,148.451,148.169Z"/><path class="a" d="M94.416,208.392c5.282,2.906,11.085,4.192,16.035.751s6.1-10.968,3.824-16.552c-1.605-3.944-4.351-5.917-8.609-5.919-2.837,0-6.079,2.108-6.848,6.751-3.095.786-6.212,1.956-6.75,7.826C91.866,203.443,92.28,207.217,94.416,208.392Z"/><path class="b" d="M150.178,147.16c-3.055-4.555-10.03-5.928-14.721-3.164a9.623,9.623,0,0,0-3.036,2.755,8.845,8.845,0,0,0-1.133,3.755c-.237,1.269-1.237,2.419-1.794,3.576a18.051,18.051,0,0,0-1.579,4.517,10.5,10.5,0,0,0,1.276,7.97,9.292,9.292,0,0,0,6.938,4.133,14.62,14.62,0,0,0,8.135-1.211,12.9,12.9,0,0,0,5.334-5.254c2.773-4.916,3.371-12.03.58-17.077-1.246-2.253-4.7-.238-3.454,2.019,1.769,3.2,1.488,7.623.347,10.971-1.185,3.481-3.918,6.369-7.736,6.652-1.869.139-4.048.113-5.586-1.093a5.7,5.7,0,0,1-2.094-4.99,13.955,13.955,0,0,1,2.076-6.1,10.131,10.131,0,0,0,1.414-3.045,6.488,6.488,0,0,1,.638-2.665c2.363-3.3,8.707-3.056,10.941.275C148.151,151.306,151.617,149.306,150.178,147.16Z"/><path class="b" d="M93.407,210.119c4.383,2.377,9.64,4.069,14.583,2.453a13.431,13.431,0,0,0,8.676-9.057,17.8,17.8,0,0,0-.92-12.525,10.665,10.665,0,0,0-9.437-6.3c-4.923-.249-8.574,3.559-9.42,8.2l1.4-1.4c-3.666.943-6.539,2.881-7.674,6.662s-.987,9.663,2.8,11.963c2.2,1.341,4.217-2.117,2.019-3.454-.925-.562-1.207-2.016-1.335-3.042a10.7,10.7,0,0,1,.469-4.693c.8-2.362,2.567-3.007,4.79-3.579a1.963,1.963,0,0,0,1.4-1.4,7.09,7.09,0,0,1,1.938-4.054,4.634,4.634,0,0,1,2.757-1.223,6.746,6.746,0,0,1,6.646,3.91c2.675,5.291,1.42,13.233-4.385,15.835-4.049,1.814-8.618.226-12.276-1.757C93.162,205.438,91.141,208.89,93.407,210.119Z"/></svg>