<?xml version="1.0" encoding="UTF-8"?>
<svg width="800px" height="800px" version="1.1" viewBox="0 0 511.98 511.98" xml:space="preserve" xmlns="http://www.w3.org/2000/svg">
<path d="m255.99 289.52c-3.9456 0-7.1483-3.2774-7.1483-7.3217v-114.44c0-4.0444 3.2027-7.3217 7.1483-7.3217s7.139 3.2774 7.139 7.3217v114.44c0 4.0444-3.1927 7.3217-7.139 7.3217z" fill="#a85d5d" stroke-width=".67821"/>
<g transform="matrix(.66988 0 0 .68665 84.506 160.43)" fill="#965353">
	<path d="m211.65 176.12c-1.813 0-3.641-0.461-5.328-1.43-5.094-2.945-6.843-9.469-3.906-14.57l83.216-144.12c2.938-5.102 9.469-6.852 14.563-3.906 5.108 2.945 6.843 9.469 3.905 14.57l-83.2 144.12c-1.984 3.422-5.562 5.336-9.25 5.336z"/>
	<path d="m300.34 176.12c-3.688 0-7.281-1.914-9.25-5.336l-83.201-144.12c-2.953-5.102-1.203-11.625 3.891-14.57 5.109-2.945 11.625-1.195 14.578 3.906l83.201 144.12c2.953 5.102 1.203 11.625-3.906 14.57-1.673 0.969-3.502 1.43-5.313 1.43z"/>
</g>
<path d="m406.79 498.88-144.42-296.05c-1.7578-3.6049-4.0709-5.4074-6.3847-5.4074-2.3232 0-4.6363 1.8024-6.3947 5.4074l-144.41 296.05c-3.5169 7.1981 0.0315 13.099 7.8919 13.099h285.81c7.8604 0 11.419-5.901 7.902-13.099z" fill="#ffd2a6" stroke-width=".67821"/>
<g transform="matrix(.66988 0 0 .68665 84.506 160.43)" fill="#ec5564">
	<path d="m96.107 469.33c-2.718 0-5.453-1.063-7.531-3.126-4.172-4.172-4.172-10.937 0-15.093l21.328-21.344c4.171-4.155 10.921-4.155 15.093 0 4.156 4.173 4.156 10.938 0 15.094l-21.343 21.343c-2.078 2.063-4.812 3.126-7.547 3.126z"/>
	<path d="m138.78 469.33c-2.734 0-5.453-1.063-7.546-3.126l-21.327-21.343c-4.157-4.155-4.157-10.921 0-15.094 4.171-4.155 10.921-4.155 15.093 0l21.328 21.344c4.156 4.156 4.156 10.921 0 15.093-2.08 2.063-4.814 3.126-7.548 3.126z"/>
	<path d="m138.78 469.33c-2.734 0-5.453-1.063-7.546-3.126-4.156-4.172-4.156-10.937 0-15.093l21.343-21.344c4.156-4.155 10.921-4.155 15.078 0 4.171 4.173 4.171 10.938 0 15.094l-21.328 21.343c-2.079 2.063-4.813 3.126-7.547 3.126z"/>
	<path d="m181.45 469.33c-2.734 0-5.469-1.063-7.547-3.126l-21.327-21.343c-4.172-4.155-4.172-10.921 0-15.094 4.156-4.155 10.921-4.155 15.078 0l21.343 21.344c4.156 4.156 4.156 10.921 0 15.093-2.095 2.063-4.814 3.126-7.547 3.126z"/>
	<path d="m341.32 469.33c-2.734 0-5.453-1.063-7.547-3.126-4.156-4.172-4.156-10.937 0-15.093l21.344-21.344c4.155-4.155 10.921-4.155 15.076 0 4.173 4.173 4.173 10.938 0 15.094l-21.326 21.343c-2.094 2.063-4.812 3.126-7.547 3.126z"/>
	<path d="m383.99 469.33c-2.735 0-5.469-1.063-7.548-3.126l-21.326-21.343c-4.172-4.155-4.172-10.921 0-15.094 4.155-4.155 10.921-4.155 15.076 0l21.329 21.344c4.171 4.156 4.171 10.921 0 15.093-2.079 2.063-4.813 3.126-7.531 3.126z"/>
	<path d="m383.99 469.33c-2.735 0-5.469-1.063-7.548-3.126-4.171-4.172-4.171-10.937 0-15.093l21.328-21.344c4.172-4.155 10.922-4.155 15.094 0 4.155 4.173 4.155 10.938 0 15.094l-21.343 21.343c-2.079 2.063-4.813 3.126-7.531 3.126z"/>
	<path d="m426.64 469.33c-2.718 0-5.453-1.063-7.531-3.126l-21.343-21.343c-4.156-4.155-4.156-10.921 0-15.094 4.172-4.155 10.922-4.155 15.094 0l21.327 21.344c4.171 4.156 4.171 10.921 0 15.093-2.079 2.063-4.812 3.126-7.547 3.126z"/>
</g>
<polygon transform="matrix(.66988 0 0 .68665 84.506 160.43)" points="192 511.98 319.99 511.98 255.99 234.66" fill="#424953"/>
<g transform="matrix(.66988 0 0 .68665 84.506 160.43)"><g fill="#9ed36a">
	<path d="m160 330.64c0 5.905-4.781 10.686-10.671 10.686-5.891 0-10.672-4.78-10.672-10.686 0-5.875 4.781-10.656 10.672-10.656 5.89 0 10.671 4.781 10.671 10.656z"/>
	<path d="m202.65 330.64c0 5.905-4.766 10.686-10.656 10.686s-10.671-4.78-10.671-10.686c0-5.875 4.781-10.656 10.671-10.656s10.656 4.781 10.656 10.656z"/>
	<path d="m330.65 330.64c0 5.905-4.766 10.686-10.655 10.686-5.891 0-10.672-4.78-10.672-10.686 0-5.875 4.781-10.656 10.672-10.656 5.89 0 10.655 4.781 10.655 10.656z"/>
	<path d="m373.32 330.64c0 5.905-4.781 10.686-10.671 10.686-5.891 0-10.657-4.78-10.657-10.686 0-5.875 4.767-10.656 10.657-10.656s10.671 4.781 10.671 10.656z"/></g><g fill="#e8563f">


	<path d="m263.93 191.99c0 5.891-4.781 10.664-10.672 10.664s-10.671-4.773-10.671-10.664 4.781-10.664 10.671-10.664 10.672 4.773 10.672 10.664z"/>
	<path d="m306.59 191.99c0 5.891-4.767 10.664-10.657 10.664s-10.672-4.773-10.672-10.664 4.781-10.664 10.672-10.664 10.657 4.773 10.657 10.664z"/>
	<path d="m221.26 191.99c0 5.891-4.781 10.664-10.672 10.664-5.89 0-10.655-4.773-10.655-10.664s4.765-10.664 10.655-10.664 10.672 4.773 10.672 10.664z"/>
	<path d="m242.59 170.66c0 5.891-4.766 10.671-10.656 10.671s-10.671-4.78-10.671-10.671 4.781-10.664 10.671-10.664 10.656 4.773 10.656 10.664z"/>
	<path d="m285.26 170.66c0 5.891-4.78 10.671-10.671 10.671s-10.655-4.78-10.655-10.671 4.765-10.664 10.655-10.664 10.671 4.773 10.671 10.664z"/>
</g></g>
<polygon transform="matrix(.66988 0 0 .68665 84.506 160.43)" points="181.32 191.99 330.65 191.99 319.99 170.66 192 170.66" fill="#fb6d51"/>
</svg>
